<svg width="348" height="197" viewBox="0 0 348 197" fill="none" xmlns="http://www.w3.org/2000/svg">
<g clip-path="url(#clip0_1_12213)">
<path d="M128.5 116.8C129.6 117.1 130.8 117.2 132 117.1C132.5 117 133 117 133.5 116.9C136.5 116.2 137 115.6 137.3 112.6C137.5 110.9 136.5 109.2 134.9 108.7C133.1 108.1 131.2 107.7 129.3 107.9C128.6 108 127.9 108.2 127.2 108.5C126.4 108.8 125.9 109.4 125.9 110.3C125.9 111.1 125.8 111.8 125.7 112.6C125.5 114.7 126.4 116.1 128.5 116.8Z" fill="#ED1C25"/>
<path d="M347.2 116.1C346.7 115 343.6 111.3 341.4 114.6C341.1 115.1 344.2 116.4 343.6 119.8C338.6 139.5 330.2 146 329 147C328 140.6 323.6 127.5 320.6 121.3C319.2 118.4 317.7 115.6 316.8 112.5C316.7 112.2 316.6 111.9 316.7 111.5C318 106.3 319.4 101.1 320.2 95.8001C320.7 92.7001 321.1 89.6001 320.8 86.5001C320.6 84.5001 319.7 83.6001 317.7 83.3001C315.5 83.0001 313.3 83.4001 311.2 84.1001C305.8 85.9001 302.6 89.5001 301.5 95.0001C300.8 98.5001 300.7 101.9 300.8 105.5C301 112.2 303 118.3 306.3 124.1C306.4 124.3 306.4 124.5 306.5 124.7C307 125.5 306.9 126.3 306.6 127.2C306 128.8 305.5 130.4 304.9 132C304 134.7 303.2 137.4 302.3 140.1C302.1 140.4 300.1 145.5 299.7 146.8C297 154.5 293.6 161.9 289.8 169.2C289.7 169.5 289.6 169.8 289.2 170C288.9 165.6 289.1 161.3 289.3 156.9C289.5 153.2 289.6 149.6 289.4 145.9C289.3 144.2 288.4 143.2 286.8 142.6C285 142 283.1 141.7 281.3 142.5C281.1 142.7 279.4 143.2 278.7 143.5C277.6 144 277.2 145 276.9 146.1C276.4 147.7 276.4 149.3 276.2 150.9C276.1 152.3 276.3 153.8 275.6 155.2C274.1 158.3 272.2 161.2 270.2 164C269.8 164.6 269.4 165.2 268.9 165.8C268.6 166.1 268.4 166.1 268.3 165.6C268.3 165.4 268.3 165.2 268.2 164.9C267.9 160.2 268.6 155.5 269.6 150.9C270.6 146.4 272.5 142.2 274.4 138.1C275.7 135.4 276.9 132.6 278.6 130C280.1 127.7 281.8 125.7 283.5 123.6C283.5 123.6 283.5 123.6 283.6 123.6C284.3 123.9 284.5 124.6 284.6 125.3C284.9 127.1 284.6 128.8 284 130.5C283.1 133.2 281.7 135.7 280.2 138.1C279.4 139.4 277.4 142.4 277.2 142.6C277.2 142.9 277.4 143.1 277.8 143.2C278.3 143.3 278.7 143.3 279.1 143.1C279.2 143.1 280.7 142.6 280.8 142.4C281.8 141.6 282.7 140.7 283.4 139.7C285.7 136.3 287.4 132.7 288.6 128.8C289 127.5 289.3 126.2 289.4 124.9C289.5 123.7 289.4 122.5 288.3 121.6C287.9 121 287.3 120.8 286.7 120.6C285.3 120.1 283.9 120.1 282.5 120.3C277.9 120.7 274.7 123.6 271.5 126.5C269.2 128.4 267.3 130.6 265.4 132.9C257.5 142.9 253.9 154.2 254.7 166.9C254.7 167.3 254.7 167.7 254.5 168.1C253.5 170.2 252.5 172.3 251.4 174.4C251.3 174.6 251.2 174.9 250.8 175.1C250.7 174.4 250.7 173.9 250.7 173.3C250.7 171.5 250.7 169.7 250.6 167.9C250.2 160.8 250.1 153.6 250.3 146.4C250.5 140.9 250.4 135.4 250 129.8C249.9 128.3 249.7 126.8 249.3 125.4C248.8 123.9 248 122.7 246.4 122.2C244.3 121.4 242.1 121.5 240 122.3C239.4 122.5 238.8 122.9 238.6 123.5C237.8 125.5 235.9 129.8 235.4 131.1C233.6 136.3 232.1 141.6 230.5 146.8C230.4 147.1 230.4 147.5 230.1 147.7C229.9 145.4 229.7 143.1 229.6 140.8C229.4 137.4 229.4 134 228.7 130.7C228.3 128.8 227.8 127 226.5 125.6C225.1 123.9 223.1 123.6 221 123.9C219 124.2 217.2 129.6 217.2 129.6C216.8 130.4 215.2 135.5 215 136.7C214 140.3 213.1 144 211.7 147.6C211.6 146.9 211.5 146.2 211.5 145.6C211.2 139.5 210.9 133.4 210.2 127.4C210 125.2 209.7 123 209 120.9C208.7 119.2 208.1 117.5 207.4 115.9C206.7 114.4 205.8 113.9 204.2 114.1C202.8 114.2 201.8 115 201.3 116.3C200.7 117.8 200.5 119.4 200.4 121C200 127.4 200.3 133.7 200.3 140.1C200.3 140.6 200.3 141 200.1 141.5C197.8 145.5 195.7 149.6 193.3 153.6C193.2 153.8 193.1 154.2 192.8 154.2C192.5 153.9 192.5 153.5 192.4 153.1C191.4 149.4 190.9 145.7 190.6 141.9C189.7 131.3 190.1 120.6 189.8 109.9C189.8 109.4 190 109.2 190.5 109.1C191 109.1 191.5 109 191.9 109C195.8 108.7 199.6 108.3 203.3 106.9C209.5 104.4 214 100.4 215.1 93.5001C215.5 90.8001 215.6 88.2001 214.2 85.8001C212.9 83.6001 211.3 81.8001 209.5 80.0001C207.6 78.2001 203.1 78.7001 201.5 79.8001C200.9 80.2001 200.7 80.7001 200.9 81.4001C201.6 84.4001 202.4 87.3001 202.8 90.4001C203 92.5001 203 94.6001 202.5 96.6001C201.5 100.7 199.1 103.5 194.9 104.6C193.6 104.9 192.2 105.2 190.9 105.4C189.8 105.6 189.8 105.6 189.7 104.4C189.5 101.8 189.3 99.3001 188.5 96.9001C188.1 95.7001 187.4 94.7001 186.1 94.4001C183.5 93.9001 181.2 94.4001 180.3 97.5001C179.4 100.5 179.2 103.6 179.1 106.7C179.1 107.4 178.9 107.6 178.2 107.8C175.1 108.5 172.2 109.4 169.4 110.9C168.3 111.5 167.3 112.2 166.4 113.1C164.7 115 165 116.7 167.2 118.1C168 118.8 169 118.7 169.9 118.3C170.8 117.9 170.5 117.1 170.6 116.4C170.6 116 170.6 115.6 170.6 115.2C171 114.4 171.5 113.7 172.3 113.3C174.2 112 176.3 111.3 178.5 110.8C179.1 110.6 179.2 111 179.2 111.5C179 117.6 179.1 123.8 179.2 129.9C179.2 130.4 179.1 130.9 178.8 131.3C177.4 133.1 175.9 134.9 174.5 136.7C174 137.3 173.8 137.3 173.5 136.6C172 133.1 170.3 129.7 168.1 126.6C166.2 123.9 164.2 121.4 162.1 118.9C161.8 118.6 161.6 118.2 161.7 117.7C162.2 114.3 162.7 110.9 163.3 107.5C163.9 104.2 163.9 101 163 97.8001C162 94.3001 159.4 91.9001 155.5 92.1001C150.4 92.3001 146.2 95.7001 145 100.7C144.6 102.3 144.5 104 144.5 105.6C144.6 109.6 146.3 113 148.3 116.3C150.2 119.4 152.4 122.3 154.7 125.1C155.2 125.6 155.2 126.2 155 126.9C154.1 130.1 153.2 133.3 152.1 136.4C149.4 143.8 146.2 151 141.8 157.6C141.6 157.9 141.4 158.3 140.9 158.6C140.7 157.2 140.5 155.9 140.5 154.7C140.2 147.9 140 141.2 139 134.4C138.7 132.1 138.2 129.9 137 128C135.4 125.4 131.4 125.4 129.9 128C129.1 129.4 128.6 130.8 128.5 132.4C128.3 135.7 128.5 139 128.7 142.4C128.7 142.9 128.8 143.4 128.6 143.9C126.4 150.9 123.9 157.7 120.9 164.3C120.8 164.6 120.6 165 120.2 165.3C120.2 165 120.1 164.7 120.1 164.5C119.9 161.5 119.8 158.4 119.9 155.4C120.2 149 120.9 142.6 121.5 136.2C121.7 134.5 121.8 132.8 121.5 131.1C121 128.7 119.6 127.2 117.2 126.7C115.9 126.5 114.6 126.4 113.3 126.4C111.1 126.5 108.8 126.4 106.6 126.1C106.2 126 105.8 126 105.8 125.4C106.1 122.1 106.5 119.5 106.5 115.4C106.5 112.3 105.6 110.9 101.7 110.6C101.2 110.6 100.7 110.6 100.3 110.7C95.3998 111.4 91.8998 115.1 91.3998 120C90.9998 123.9 92.4998 126.5 96.0998 128.1C97.5998 128.7 99.0998 129.1 100.7 129.4C101.3 129.5 101.4 129.7 101.4 130.3C101.2 133.5 101.1 136.7 100.9 139.9C99.9998 153.2 96.2998 165.7 90.9998 177.8C90.8998 178 90.8998 178.3 90.5998 178.4C90.2998 178.1 90.3998 177.7 90.2998 177.3C89.5998 172.3 89.4998 167.2 89.4998 162.2C89.3998 153.4 89.5998 144.6 88.8998 135.8C88.5998 132.1 87.9998 128.4 86.7998 124.8C85.9998 122.4 84.1998 121.3 81.6998 121.4C79.7998 121.4 78.3998 122.3 77.1998 123.6C76.1998 124.7 75.4998 126 74.7998 127.3C71.0998 133.7 68.7998 140.5 67.1998 147.7C67.0998 148.1 67.0998 148.5 66.7998 148.9C66.7998 148.4 66.6998 148 66.6998 147.6C66.5998 143.3 66.5998 139 66.7998 134.7C66.9998 128.3 67.3998 121.9 68.4998 115.5C68.5998 115 68.5998 114.6 69.0998 114.3C70.6998 113.3 71.9998 111.9 73.3998 110.6C77.2998 106.9 80.4998 102.7 82.9998 98.0001C84.4998 95.3001 85.5998 92.4001 85.0998 89.2001C84.8998 87.7001 84.3998 87.1001 82.8998 86.8001C81.2998 86.4001 79.7998 86.5001 78.2998 87.0001C70.5998 89.3001 64.8998 94.1001 61.4998 101.4C59.5998 105.4 58.4998 109.6 57.6998 113.9C57.3998 115.4 57.0998 116.9 56.5998 118.3C55.2998 121.7 54.4998 125.3 53.6998 128.9C52.6998 133.5 51.4998 138 50.6998 142.5C50.0998 146 34.4998 196 24.5998 188.2C18.6998 183.5 17.4998 175.2 16.4998 167.7C15.1998 158.3 14.9998 148.9 15.7998 139.4C16.7998 128.9 18.8998 118.6 21.5998 108.5C23.3998 101.8 25.8998 95.4001 28.6998 89.0001C28.8998 88.6001 28.9998 88.1001 29.6998 88.3001C33.5998 88.9001 37.3998 88.6001 41.1998 87.7001C44.1998 87.0001 47.1998 86.0001 49.3998 83.8001C53.5998 79.5001 55.8998 74.3001 55.9998 68.3001C56.0998 64.7001 54.5998 63.1001 51.0998 62.1001C47.5998 61.1001 44.1998 61.4001 40.7998 62.3001C34.3998 63.9001 29.0998 67.3001 24.6998 72.1001C24.1998 72.6001 23.7998 73.6001 23.2998 73.5001C22.7998 73.3001 22.3998 72.4001 22.0998 71.7001C19.4998 66.5001 17.6998 60.9001 16.3998 55.3001C15.5998 52.1001 15.0998 48.8001 13.7998 45.7001C13.1998 44.3001 12.2998 43.2001 10.5998 43.1001C8.79976 43.0001 7.19976 43.5001 6.19976 45.2001C5.59976 46.3001 5.09976 47.4001 4.79976 48.5001C3.19976 53.0001 2.89976 58.0001 3.79976 63.0001C4.29976 65.6001 5.09976 68.2001 5.99976 70.7001C7.79976 75.9001 11.3998 79.6001 15.7998 82.7001C16.2998 83.0001 16.2998 83.2001 15.9998 83.7001C15.2998 84.9001 14.5998 86.2001 13.9998 87.5001C9.39976 97.5001 6.09976 108 3.69976 118.8C0.199764 134.8 -1.20024 150.8 0.899764 167.1C1.99976 175.7 4.99976 183.5 9.89976 190.5C11.1998 192.4 12.9998 193.9 15.0998 194.9C20.1998 197.4 25.3998 197.1 30.6998 195.5C42.8998 191.9 51.3998 159.4 53.6998 150C53.9998 148.7 54.4998 147.4 54.8998 146.1C55.0998 146.3 55.0998 146.5 55.0998 146.8C55.3998 152.2 54.9998 157.7 54.8998 163.1C54.8998 165.6 55.1998 168.1 58.1998 169C58.2998 169 58.3998 169.1 58.3998 169.1C61.3998 170 66.1998 168.3 66.9998 168.1C68.9998 167.5 68.6998 166.7 68.8998 164.5C69.2998 158.2 69.6998 151.9 71.0998 145.7C72.6998 138.4 75.0998 131.4 79.3998 125.1C79.5998 124.8 79.6998 124.4 80.1998 124.3C80.2998 124.4 80.2998 124.5 80.2998 124.5C80.3998 125 80.3998 125.5 80.3998 125.9C80.7998 131.4 79.8998 136.9 79.1998 142.3C77.6998 153.3 77.6998 164.3 78.4998 175.3C78.6998 178.3 79.2998 181.2 80.2998 184.1C81.0998 186.4 82.6998 187.7 85.0998 188C87.1998 188.3 89.2998 188.2 91.2998 187.5C92.8998 186.9 93.9998 185.9 94.5998 184.2C95.3998 181.9 96.0998 179.5 96.5998 177.1C97.9998 170.7 99.0998 164.3 100.7 158C102 152.8 103 147.6 103.7 142.3C104.2 138.3 104.7 134.4 105 130.4C105.1 129.7 105.3 129.4 106 129.5C106.8 129.6 107.7 129.6 108.5 129.6C110.8 129.6 110.8 129.6 110.6 131.9C110.2 136 109.5 140.1 109.1 144.2C108.5 150.5 107.9 156.8 108.3 163.1C108.4 165.4 108.9 167.5 110 169.5C110.5 170.5 111.2 171.4 112.3 171.9C114.8 173.2 117.3 173.2 119.9 172.6C122.2 172 123.2 170.3 124.2 168.4C126.1 164.7 127.1 160.6 128.3 156.7C128.4 156.3 128.4 155.9 128.9 155.4C128.9 156 129 156.5 129 156.9C129.3 159.4 129.8 161.8 130.9 164C131.5 165.2 132.5 166.1 133.8 166.6C138.4 168.3 143.5 166.6 145.9 162.4C147.5 159.8 148.8 157 150 154.2C153.1 146.9 155.7 139.4 157.8 131.8C157.9 131.4 157.9 131 158.3 130.7C158.4 130.8 158.4 130.9 158.5 130.9C158.7 131.3 159 131.7 159.2 132.2C161.3 136.1 162.6 140.1 163.7 144.4C164.3 146.6 164.1 148.2 162.4 149.9C160.1 152.2 158.1 154.8 156.8 157.9C155.6 160.8 156.7 163.3 159.7 164.3C162.9 165.3 166.1 165.1 169.2 163.8C169.9 163.5 170.5 163.1 171 162.6C173.5 160.1 175.4 157.2 175.8 153.6C176.2 150.1 175.6 146.7 174.8 143.4C174.5 142.3 174.6 141.6 175.3 140.7C176.4 139.4 177.4 137.9 178.4 136.5C178.7 136.7 178.6 137 178.6 137.2C178.7 139 178.8 140.7 179 142.5C179.4 147 179.9 151.5 181.4 155.9C182 157.5 182.7 159 184.1 160C187.1 162.4 190.5 162.5 194 161.5C195.6 161.1 196.7 160.1 197.4 158.5C198.2 156.8 199.1 155.3 199.9 153.6C200 153.5 200 153.2 200.4 153.3C200.4 156 200.4 158.8 200.7 161.5C201 164.5 201.1 165.1 202.2 167.1C202.4 167.4 202.7 167.6 203 167.8C205.1 168.6 207.2 168.4 209.2 167.3C211.3 166.2 211.8 161.2 211.9 160.3C212 157.7 211.6 155 212.5 152.4C213.6 149.1 214.6 145.7 215.5 142.3C216.1 140.4 217.7 135.3 217.9 135C218.4 135.6 218 141 218.3 143.1C218.6 149.5 218.6 156 218.7 162.4C218.7 165.4 218.7 168.4 218.7 171.4C218.7 172.8 219.5 173.6 220.7 174C222.7 174.6 224.6 174.7 226.6 174C229.2 173.1 229.9 172.3 229.9 169.7C229.9 164.7 229.9 159.7 231.5 154.9C231.7 154.2 231.9 153.4 232.1 152.7C233.9 145.7 235.5 138.6 238.1 131.8C238.2 131.4 238.3 131 238.7 130.7C238.9 135.2 239 139.7 238.9 144.1C238.7 151.5 238.6 159 239.1 166.4C239.3 169.3 239.7 172.2 240.7 175C241.7 177.7 243.6 179.6 246.4 180.4C250.1 181.6 252.8 180.3 254.2 176.8C254.9 175.1 255.5 173.5 256.2 171.8C256.3 171.5 256.4 171.1 256.9 171.4C259 172.9 261.4 173.3 263.9 173.3C268.7 173.4 272.8 172 275.1 167.4C275.2 167.3 275.2 167.1 275.4 167.1C275.6 167.4 275.5 167.8 275.5 168.1C275.6 170.1 275.8 172.1 276.3 174.1C277.1 177.1 279.1 178.9 282.1 179.5C283.7 179.9 285.3 179.8 286.9 179.4C289 179 290.6 177.9 291.8 176C292.7 174.5 293.5 173 294.1 171.4C294.7 169.7 295.4 167.9 296 166.2C298.3 159.9 300.9 153.8 302.9 147.4C303.1 147 306 139.9 306.2 139.6C307.1 137.1 308 134.7 308.9 132.2C309 132.1 309 132.1 309.1 132C309.1 132.1 309.2 132.3 309.3 132.4C310.3 135.8 311.8 139.1 312.6 142.6C314 148.5 315.4 155.9 316.4 161.9C316.6 162.8 308.5 172 305.8 177.1C304.1 180.4 302.7 183.8 303.3 187.7C304 191.9 307.4 195.7 311.5 196.5C315.5 197.3 319.3 196.4 322.9 194.5C327.9 191.9 330.3 187.3 331.5 182C332.3 178.1 332.2 174.2 332.2 170.3C332.1 165 330.9 157.6 329.8 152.4C329.8 152.4 332.2 149.8 332.8 149.1C337 144.2 340.8 138.6 343.6 132.7C348.8 122.3 348 118 347.2 116.1ZM70.5998 105C72.2998 99.7001 74.7998 94.9001 78.8998 90.9001C78.9998 90.8001 80.0998 89.5001 80.4998 89.7001C80.9998 89.9001 80.8998 90.4001 80.8998 91.3001C80.8998 92.8001 80.4998 94.2001 79.8998 95.6001C77.7998 100.2 74.8998 104.2 71.2998 107.8C70.7998 108.3 70.1998 108.9 69.6998 109.4C69.6998 107.8 70.0998 106.4 70.5998 105ZM33.1998 80.0001C34.6998 77.5001 36.2998 75.0001 38.1998 72.8001C39.9998 70.6001 41.8998 68.5001 43.6998 66.3001C44.5998 65.2001 45.6998 64.3001 47.2998 64.4001C47.8998 64.5001 48.2998 64.7001 48.5998 65.3001C49.0998 66.5001 49.0998 67.7001 48.7998 69.0001C48.0998 72.7001 46.0998 75.8001 43.4998 78.5001C41.8998 80.2001 39.8998 81.3001 37.8998 81.9001C35.8998 82.0001 34.4998 81.2001 33.0998 80.7001C32.5998 80.6001 33.0998 80.3001 33.1998 80.0001ZM102 114.2C102.1 116.1 102.2 117.9 102 119.8C101.8 121.1 101.9 122.5 101.8 123.9C101.1 123.6 100.8 123.1 100.6 122.6C99.5998 119.7 99.4998 116.7 101.1 113.9C101.2 113.7 101.4 113.2 101.8 113.3C102 113.5 101.9 113.9 102 114.2ZM157.7 112.9C154.7 108.6 152.8 104.3 153 99.2001C153.1 97.7001 153.6 96.3001 154.7 95.3001C155.2 94.8001 155.6 94.7001 156.1 95.3001C157.1 96.3001 157.8 97.5001 158.1 98.9001C159.3 103.5 158.6 108.1 157.7 112.9ZM313.5 190.9C311.6 189.8 310.8 188.1 310.4 186.1C310.1 184.6 310 183 310.5 181.6C312 176.9 314.5 172.8 317.3 168.6C318 178.4 317 184 313.5 190.9ZM313.4 104.3C313.1 104 313.1 103.6 313.1 103.2C312.7 99.2001 312.6 95.2001 313.3 91.3001C313.5 90.2001 313.8 89.1001 314.7 88.1001C315.1 89.4001 315.3 90.6001 315.3 91.9001C315.2 96.0001 314.2 100 313.5 104C313.5 104.1 313.5 104.2 313.4 104.3Z" fill="#ED1C25"/>
<path d="M16.1998 83.2002C16.1998 83.2002 24.4998 87.6002 28.9998 87.9002C28.9998 87.9002 28.7998 87.7002 28.3998 88.6002C28.3998 88.6002 26.4998 92.8002 25.6998 95.2002C25.6998 95.2002 17.5998 94.4002 12.2998 91.4002C12.2998 91.4002 13.2998 88.9002 16.1998 83.2002Z" fill="#AF2A30"/>
<path d="M55 146.3C55 146.3 58.7 130.7 68.4 114.2C68.4 114.2 67.1 120.9 66.8 128.7C66.8 128.7 59.2 147.7 55.3 153.5" fill="#AF2A30"/>
<path d="M100.9 129.1C100.9 129.1 104.4 130 105.6 129.7C105.6 129.7 105.2 129.5 105.1 130.9L104.7 135.5C104.7 135.5 102.7 136 101 135.4L100.9 129.1Z" fill="#AF2A30"/>
<path d="M158.6 130.9C158.6 130.9 160.7 122.1 161.3 117.7C161.3 117.7 163 119.8 165.6 123.4C165.6 123.4 164.4 132.2 161.2 136.1L158.6 130.9Z" fill="#AF2A30"/>
<path d="M309.4 132.1C309.4 132.1 316.2 115.8 316.7 111.4C316.7 111.4 316.6 112.9 318.9 117.6C320.7 121.3 321.6 123.3 322.4 125.3C322.4 125.3 316 138.4 312.8 142.3L309.4 132.1Z" fill="#AF2A30"/>
<path d="M178.7 110.6C178.7 110.6 185.7 109.1 190.2 109C190.2 109 189.9 108.8 189.9 109.9L190 117C190 117 180.6 117.9 178.8 118.6L178.7 110.5" fill="#AF2A30"/>
<path d="M317.3 168.5C317.3 168.5 326.4 156.5 330.1 152.4C330.1 152.4 331.2 157.9 331.4 159.9C331.4 159.9 319.8 172 317.5 175.4C317.5 175.4 317.6 170 317.3 168.5Z" fill="#AF2A30"/>
<path d="M268.4 52.9003C266.3 52.3003 264.2 52.0003 262 52.2003C259.1 52.5003 256.3 53.1003 253.6 54.0003C252.9 54.2003 252.7 54.2003 252.6 53.4003C252.2 47.2003 251.3 41.1003 250 35.1003C249.4 32.4003 248.9 29.7003 247.6 27.2003C246.7 25.4003 245.3 24.6003 243.2 24.7003C241.1 24.8003 240.3 25.6003 240.2 27.7003C240 30.4003 240.2 33.1003 240.6 35.8003C240.7 36.4003 240.6 37.0003 240.3 37.6003C237.8 42.5003 235.3 47.4003 232.7 52.2003C231 55.5003 228.7 58.4003 226.2 61.1003C226 61.3003 225.8 61.6003 225.6 61.6003C225.3 61.5003 225.4 61.1003 225.4 60.9003C225 57.2003 225.5 53.6003 226 50.0003C226.9 44.4003 227.5 38.7003 227.5 33.0003C227.5 32.1003 227.4 31.2003 227.2 30.4003C226.9 29.5003 226.3 28.8003 225.4 28.7003C224.4 28.5003 223.5 28.7003 222.8 29.6003C222 30.5003 221.4 31.6003 221 32.7003C219.5 36.1003 218.5 39.7003 217.7 43.3003C217.6 43.8003 217.5 44.4003 217.2 44.9003C214.2 49.7003 211.2 54.4003 208.2 59.2003C208.1 59.4003 208 59.7003 207.6 59.7003C207.7 58.6003 207.8 57.6003 208 56.6003C209.1 50.4003 210.6 44.3003 212.1 38.2003C212.8 35.6003 213.5 32.9003 213.8 30.2003C214.1 27.6003 213.1 26.0003 210.8 25.1003C210.7 24.9003 210.4 24.9003 210.2 24.8003C208.2 24.1003 206.2 23.7003 204.1 23.3003C203.6 23.1003 203.8 22.8003 203.9 22.4003C204.6 19.5003 205.3 16.6003 205.8 13.7003C206 12.7003 206.1 11.7003 205.8 10.7003C205.7 10.1003 205.4 9.60032 204.8 9.30032C204.3 8.90032 203.8 8.80032 203.2 8.70032C199.5 8.10032 196.2 8.80032 193.5 11.6003C192.2 13.0003 191.2 14.5003 190.5 16.3003C189.2 19.5003 190.4 23.2003 193.4 25.0003C194.1 25.7003 194.9 25.9003 195.8 26.2003C197.1 26.7003 198.5 26.8003 199.9 27.1003C199.8 27.8003 199.6 28.5003 199.3 29.2003C198.8 30.5003 198.4 31.8003 197.9 33.1003V33.2003C197.4 34.5003 196.9 35.8003 196.4 37.1003C196 37.6003 188.1 58.0003 182.2 65.2003C181.9 65.6003 181.8 66.1003 181.2 66.3003C181.1 64.2003 181.3 62.3003 181.5 60.3003C182.2 53.4003 183.8 46.6003 185.5 39.8003C186.5 36.0003 187.1 32.2003 186.9 28.3003C186.8 27.0003 186.7 25.6003 185.6 24.7003C185 23.9003 184.2 23.5003 183.3 23.1003C181.8 22.5003 180.3 22.1003 178.7 21.8003C178.1 21.7003 178 21.5003 178.2 20.9003C178.8 18.6003 179.4 16.4003 179.5 14.1003C179.6 11.2003 178.7 10.0003 175.9 9.40032C175.5 9.30032 175.1 9.30032 174.7 9.20032C170.3 9.00032 167.8 10.6003 167.2 15.1003C166.8 17.9003 167.7 20.2003 170.1 21.6003C170.9 22.1003 171.8 22.6003 172.7 23.0003C173.2 23.2003 173.3 23.5003 173.1 24.0003C170.3 33.0003 163.3 58.8003 154 59.1003C153.7 59.1003 153.7 58.7003 153.6 58.4003C153.6 58.3003 153.5 58.2003 153.5 58.1003C152.3 53.0003 151.9 47.9003 152.5 42.7003C152.6 42.2003 152.8 42.0003 153.2 41.8003C155.5 40.8003 157.6 39.5003 159.2 37.5003C161.4 34.7003 162.7 31.6003 162.1 27.9003C161.8 26.0003 160.5 24.9003 158.6 24.8003C158.1 24.8003 157.5 24.7003 157 24.8003C151.1 25.9003 146.6 28.9003 144.5 34.7003C142.8 39.3003 142.4 44.1003 142.5 48.9003C142.6 51.1003 142.3 53.0003 141.6 55.1003C140.1 60.1003 138.5 65.0003 136.3 69.7003C136.1 70.0003 136.1 70.7003 135.6 70.7003C135.5 70.4003 135.5 70.1003 135.4 69.9003C134.3 63.5003 134.4 57.1003 134.8 50.7003C135.4 40.3003 136.7 29.9003 137.5 19.5003C137.8 15.3003 138.2 11.0003 137.7 6.80032C137.6 5.60032 136.2 2.30032 134.3 1.00032C132 -0.599681 128.9 -0.599681 127.3 1.70032C125.9 3.80032 124.8 6.10032 123.9 8.40032C123 10.1003 121.7 15.2003 121.7 15.2003C121.4 16.1003 119.7 24.0003 119.7 24.0003C118.8 27.2003 118.2 30.6003 117.6 33.9003C117.4 34.2003 117.5 34.6003 117.3 34.9003C117.4 34.6003 117.5 34.3003 117.3 34.0003C117.3 27.1003 117.1 20.2003 116.6 13.4003C116.5 11.6003 116.4 9.70032 115.8 7.90032C115.6 6.50032 115.2 5.10032 114.6 3.90032C112.3 -0.79968 105.7 -1.49968 102.9 2.80032C102.1 4.00032 101.5 5.20032 101 6.50032C99.7 10.3003 98.5 14.2003 97.3 18.1003C97.2 18.4003 97.1 18.7003 97.1 19.0003C96.6 18.4003 96.5 17.6003 96.2 16.9003C95.6 15.7003 94.9 14.5003 94 13.5003C92 11.3003 89.5 10.6003 86.6 11.0003C85.6 11.1003 84.9 11.7003 84.2 12.3003C80.5 15.7003 79.5 19.7003 79.5 24.8003C79.6 27.1003 80.6 27.8003 81.2 27.7003C81.9 27.6003 81.7 26.2003 81.7 26.2003C81.8 18.1003 86.5 14.1003 86.8 14.2003C87.1 14.3003 87 14.7003 87.1 14.9003C87.8 17.8003 87.9 20.7003 88.1 23.6003C88.6 31.0003 88.6 38.4003 89 45.9003C89.3 52.0003 89.3 58.2003 90.1 64.3003C90.2 65.2003 90.6 65.8003 91.3 66.1003C93.8 67.2003 96.4 67.2003 98.9 66.1003C99.9 65.6003 100.1 65.1003 100 64.0003C99.8 62.8003 99.7 61.6003 99.6 60.4003C99 51.8003 99.3 42.9003 99.8 34.0003C100.2 25.1003 101.9 16.5003 105.6 8.30032C105.8 7.90032 105.9 7.50032 106.2 7.20032C106.2 7.30032 106.3 7.30032 106.3 7.40032C106.4 8.00032 106.4 8.60032 106.5 9.20032C107.1 19.4003 107.8 29.6003 107.2 39.8003C107 44.0003 106.8 48.1003 107 52.3003C107.3 56.7003 108.8 57.8003 113.2 57.3003C113.3 57.3003 113.4 57.3003 113.4 57.2003C116.9 56.7003 116.6 49.7003 116.9 48.4003C117.9 43.1003 118.7 37.8003 119.9 32.6003C120.5 30.0003 124.4 12.7003 126.5 9.30032C127.2 8.10032 127.7 6.80032 128.7 5.50032C128.5 8.90032 128.3 12.0003 128.1 15.1003C127.2 26.1003 125.9 37.1003 125.1 48.1003C124.7 53.6003 124.4 59.2003 124.8 64.7003C125 67.4003 125.3 70.1003 126 72.7003C126.8 75.5003 128.5 77.4003 131.5 78.0003C132.7 78.2003 133.8 78.3003 135 78.1003C137.4 77.9003 139.1 76.5003 140 74.4003C140.2 74.0003 140.3 73.6003 140.5 73.3003C142 69.6003 142.8 65.6003 144 61.8003C144.1 61.5003 144.2 61.3003 144.3 60.9003C144.5 61.2003 144.6 61.3003 144.7 61.5003C145.8 63.4003 147.4 64.7003 149.5 65.2003C155.9 66.7003 160.9 64.6003 164.1 59.1003C167.5 53.2003 170.2 47.0003 172.4 40.5003C173.5 37.2003 174.5 33.8003 175.6 30.5003C176.1 29.1003 176.2 27.5003 176.9 26.2003C177.3 29.1003 177 31.9003 176.7 34.7003C176.3 37.6003 174.8 42.7003 174.5 44.0003C173.8 46.9003 172.5 53.3003 172.5 53.6003C172.1 55.8003 171.7 58.0003 171.6 60.2003C171.5 61.1003 171.5 62.0003 171.4 62.8003C171.2 64.9003 171.2 66.9003 171.5 68.9003C171.6 69.3003 171.6 69.7003 171.8 70.1003C172.4 71.3003 173.2 72.2003 174.4 72.7003C176.4 73.6003 178.6 73.8003 180.7 73.3003C182.1 73.0003 183.1 72.2003 183.9 71.0003C185.2 69.2003 185.9 67.1003 186.9 65.1003C189.7 59.5003 200.8 30.9003 201.7 28.7003C201.9 28.3003 201.9 27.7003 202.7 27.9003C203.7 28.0003 203.9 28.7003 203.8 29.5003C203.7 30.2003 203.7 30.9003 203.6 31.6003C202.7 36.6003 201.2 41.4003 200.1 46.3003C199.1 50.8003 197.9 55.3003 197.6 59.9003C197.5 61.8003 197.4 63.6003 197.8 65.4003C198.1 66.7003 198.7 67.6003 200 68.1003C203.6 70.2003 208.3 69.1003 210.3 65.5003C212 62.6003 213.2 59.5003 215 56.7003C215.2 56.5003 215.3 56.2003 215.6 55.8003C215.6 56.3003 215.6 56.5003 215.6 56.8003C215.5 58.7003 215.6 60.7003 215.9 62.6003C216.1 63.8003 216.6 64.8003 217.5 65.5003C220.3 67.8003 225.3 67.9003 228.3 65.8003C230.3 64.4003 231.6 62.5003 232.9 60.5003C236.2 55.3003 238.8 49.8003 241.2 44.1003C241.3 43.8003 241.4 43.5003 241.7 43.3003C241.9 43.5003 241.9 43.8003 241.9 44.1003C242.6 48.6003 242.7 53.2003 243.2 57.8003C243.3 58.8003 243.1 59.4003 242.2 59.9003C236.2 63.5003 231 68.2003 227 74.0003C223.6 79.0003 221.5 84.4003 221.9 90.5003C222.3 96.5003 224.2 101.7 228.4 106.1C229.6 107.4 231.1 108.4 232.8 109C235.3 109.9 237.8 110.2 240.4 110.2C245.2 110.2 248.8 108 251 103.8C251.5 102.8 252 101.7 252.3 100.6C253.5 96.3003 253.9 91.9003 253.9 87.4003C254 78.1003 253.7 68.9003 252.9 59.7003C252.8 58.9003 253.1 58.5003 253.8 58.2003C256.8 56.8003 259.9 55.9003 263.1 55.3003C264.8 55.0003 266.5 55.0003 268.1 54.8003C268.7 54.7003 269.5 54.6003 269.5 53.9003C269.7 53.2003 268.9 53.0003 268.4 52.9003ZM154.9 31.7003C155.2 31.0003 155.5 30.3003 155.9 29.7003C156.5 28.9003 157 28.1003 157.8 27.5003C158.2 27.2003 158.4 27.3003 158.6 27.7003C159 28.6003 159.1 29.5003 159 30.5003C158.5 34.6003 156.4 37.6003 153.1 39.8003C153 39.9003 152.9 39.9003 152.7 39.9003C153.1 37.0003 153.9 34.3003 154.9 31.7003ZM97 19.2003C97 19.3003 97.1 19.2003 97 19.2003V19.2003ZM174.3 19.2003C174.3 19.4003 174.2 19.6003 174.1 19.6003C173.9 19.7003 173.8 19.4003 173.7 19.3003C173 18.3003 172.5 17.2003 172.7 15.9003C172.9 14.6003 173 13.4003 173.7 12.2003C173.8 12.0003 174 11.7003 174.3 11.7003C174.6 11.7003 174.7 12.0003 174.9 12.3003C175.2 12.8003 175.2 13.4003 175.2 14.2003C175 15.7003 174.8 17.5003 174.3 19.2003ZM201.2 21.9003C201.2 22.0003 201.1 22.1003 201 22.2003C199.5 20.7003 199.1 18.9003 199.7 17.0003C200.2 15.2003 200.9 13.4003 201.7 11.7003C202 11.3003 202.3 11.2003 202.5 11.8003C202.6 12.0003 202.7 12.3003 202.8 12.5003C202.9 15.7003 202.2 18.8003 201.2 21.9003ZM203.6 27.9003C203.7 28.0003 203.7 28.0003 203.8 28.1003C203.7 28.0003 203.7 28.0003 203.6 27.9003ZM244.1 90.8003C244 94.1003 243.5 97.3003 242.6 100.4C242 102.4 241 104.1 239.6 105.6C239.2 106 238.8 106.1 238.3 105.9C237.5 105.6 236.9 105.1 236.3 104.6C229.5 98.9003 228 89.2003 230.7 82.0003C232.6 77.0003 235.6 72.7003 239.3 68.9003C240.5 67.6003 241.8 66.5003 243.1 65.3003C243.2 65.2003 243.4 65.0003 243.7 65.0003C243.8 65.9003 243.8 66.7003 243.9 67.6003C244.2 75.4003 244.4 83.1003 244.1 90.8003Z" fill="#ED1C25"/>
<path d="M243.7 65.0996C243.7 65.0996 250.3 60.0996 253.4 58.5996C253.4 58.5996 253 58.7996 253.1 59.8996C253.2 60.9996 253.6 67.2996 253.6 67.2996C253.6 67.2996 247.5 70.5996 244.1 74.1996L243.7 65.0996Z" fill="#AF2A30"/>
<path d="M176.8 25.8998C176.8 25.8998 177.9 22.8998 177.9 21.2998C177.9 21.2998 177.7 21.6998 178.9 21.9998C180.1 22.2998 182.3 22.8998 182.3 22.8998C182.3 22.8998 178.3 30.1998 176.8 32.0998C176.9 31.9998 177.1 26.1998 176.8 25.8998Z" fill="#AF2A30"/>
<path d="M202.3 27.5996C202.3 27.5996 203.4 24.0996 203.5 22.5996C203.5 22.5996 203.4 22.9996 204.1 23.0996C204.8 23.2996 204.3 23.0996 204.3 23.0996L206.8 23.6996C206.8 23.6996 205.5 28.1996 203.7 28.7996C203.8 28.7996 203.8 27.5996 202.3 27.5996Z" fill="#AF2A30"/>
<path d="M144.2 60.5998C144.2 60.5998 147.8 45.0998 152.5 42.2998C152.5 42.2998 151.8 45.6998 152.1 49.0998C152.1 49.0998 148.6 58.2998 147.6 64.1998C147.6 64.1998 146.1 63.8998 144.2 60.5998Z" fill="#AF2A30"/>
</g>
<defs>
<clipPath id="clip0_1_12213">
<rect width="347.8" height="196.9" fill="white"/>
</clipPath>
</defs>
</svg>
